<?xml version="1.0" standalone="no"?>
<!DOCTYPE svg PUBLIC "-//W3C//DTD SVG 20010904//EN"
 "http://www.w3.org/TR/2001/REC-SVG-20010904/DTD/svg10.dtd">
<svg version="1.0" xmlns="http://www.w3.org/2000/svg"
 width="32.000000pt" height="32.000000pt" viewBox="0 0 32.000000 32.000000"
 preserveAspectRatio="xMidYMid meet">

<g transform="translate(0.000000,32.000000) scale(0.100000,-0.100000)"
fill="#000000" stroke="none">
<path d="M16 274 c-23 -22 -20 -39 15 -79 l31 -35 -31 -35 c-17 -20 -31 -42
-31 -50 0 -17 27 -45 44 -45 17 0 126 113 126 130 0 17 -109 130 -126 130 -7
0 -20 -7 -28 -16z m83 -170 c-47 -47 -57 -53 -68 -40 -10 12 -6 22 25 55 l36
41 -36 41 c-31 33 -35 43 -25 55 11 13 21 7 68 -40 l56 -56 -56 -56z"/>
<path d="M168 279 c-26 -15 -22 -44 13 -84 l31 -35 -31 -35 c-38 -44 -40 -71
-6 -87 24 -11 30 -7 85 47 33 33 60 66 60 74 0 17 -109 131 -125 131 -5 0 -18
-5 -27 -11z m83 -173 c-31 -31 -59 -52 -67 -49 -22 8 -16 25 23 65 l37 38 -37
38 c-20 21 -37 43 -37 49 0 29 30 16 80 -33 l55 -54 -54 -54z"/>
</g>
</svg>
