<?xml version="1.0" standalone="no"?>
<!DOCTYPE svg PUBLIC "-//W3C//DTD SVG 20010904//EN"
 "http://www.w3.org/TR/2001/REC-SVG-20010904/DTD/svg10.dtd">
<svg version="1.0" xmlns="http://www.w3.org/2000/svg"
 width="32.000000pt" height="32.000000pt" viewBox="0 0 32.000000 32.000000"
 preserveAspectRatio="xMidYMid meet">

<g transform="translate(0.000000,32.000000) scale(0.100000,-0.100000)"
fill="#000000" stroke="none">
<path d="M85 230 l-69 -70 69 -70 c38 -39 74 -69 79 -67 5 2 14 11 20 20 9 13
1 26 -39 67 l-49 50 49 50 c40 41 48 54 39 67 -6 9 -15 18 -20 20 -5 2 -41
-28 -79 -67z m89 43 c3 -4 -17 -31 -46 -60 l-52 -53 54 -55 c45 -46 51 -55 36
-61 -13 -5 -34 9 -79 54 l-62 62 60 60 c57 58 74 68 89 53z"/>
<path d="M186 230 l-71 -69 60 -61 c72 -74 91 -86 111 -69 21 17 18 26 -32 79
l-47 50 47 50 c25 27 46 53 46 58 0 11 -22 32 -33 32 -5 0 -41 -31 -81 -70z
m94 38 c0 -7 -21 -34 -47 -60 l-47 -48 47 -48 c26 -26 47 -53 47 -60 0 -25
-28 -10 -85 48 l-59 60 59 60 c57 58 85 73 85 48z"/>
</g>
</svg>
